<?xml version="1.0" standalone="no"?>
<!DOCTYPE svg PUBLIC "-//W3C//DTD SVG 20010904//EN"
 "http://www.w3.org/TR/2001/REC-SVG-20010904/DTD/svg10.dtd">
<svg version="1.0" xmlns="http://www.w3.org/2000/svg"
 width="840.000000pt" height="859.000000pt" viewBox="0 0 840.000000 859.000000"
 preserveAspectRatio="xMidYMid meet">

<g transform="translate(0.000000,859.000000) scale(0.100000,-0.100000)"
fill="#000000" stroke="none">
<path d="M3485 5553 c-198 -311 -392 -617 -432 -679 l-72 -114 154 -131 c85
-72 155 -133 155 -135 0 -2 -35 18 -77 44 -43 27 -266 165 -497 306 -405 250
-419 258 -436 240 -31 -33 -730 -933 -730 -940 0 -6 32 -52 100 -143 31 -43
30 -42 -144 86 -78 56 -144 102 -148 100 -3 -1 -127 -162 -274 -357 -546 -725
-574 -761 -658 -827 -86 -67 -185 -115 -301 -146 l-90 -24 40 -12 c337 -95
784 -151 1090 -136 378 18 682 85 1381 306 142 45 365 115 494 155 833 263
1349 356 1890 341 336 -9 613 -48 1219 -172 582 -119 905 -173 1286 -216 234
-26 671 -37 813 -19 100 12 147 30 79 30 -49 0 -111 24 -192 75 -58 36 -166
142 -596 587 -288 299 -592 613 -675 698 -237 244 -417 431 -460 478 l-40 44
-208 -222 c-115 -122 -227 -240 -248 -263 -33 -34 -28 -24 28 58 37 55 92 133
121 174 43 60 51 77 41 87 -7 6 -170 132 -363 279 -192 148 -369 283 -392 302
l-41 33 -231 -226 c-127 -124 -231 -230 -231 -235 0 -4 43 -82 96 -171 98
-166 121 -207 112 -198 -5 4 -341 426 -991 1243 -100 126 -189 237 -197 248
-14 17 -40 -21 -375 -548z m584 29 c200 -253 208 -265 219 -324 10 -55 9 -72
-15 -167 -14 -58 -29 -110 -33 -114 -4 -4 -37 26 -74 68 -37 41 -71 75 -75 75
-4 0 -31 -34 -61 -74 -30 -41 -57 -75 -60 -75 -3 -1 -22 32 -42 72 -34 66
-149 228 -167 235 -4 1 -55 -65 -112 -147 l-104 -149 -61 -17 c-53 -14 -66
-23 -95 -62 l-34 -45 -3 96 -3 95 247 401 c136 220 251 399 256 398 5 -2 102
-121 217 -266z m1455 -491 c110 -80 204 -149 209 -152 5 -4 -7 -50 -28 -105
-27 -74 -57 -127 -118 -214 l-82 -115 -6 70 c-4 39 -7 106 -8 151 l-1 80 -71
102 c-38 56 -75 102 -80 102 -5 0 -33 -14 -63 -30 -49 -28 -56 -29 -106 -20
-29 5 -55 10 -59 10 -3 0 33 39 81 88 75 76 87 93 93 132 9 55 13 62 28 53 7
-4 102 -72 211 -152z m-2963 -317 l208 -126 -21 -52 c-54 -138 -66 -180 -83
-298 -10 -71 -22 -128 -27 -128 -5 0 -65 55 -134 122 l-125 122 -153 -153
c-111 -111 -153 -147 -150 -130 2 13 20 140 40 283 l35 258 92 114 c51 63 96
114 101 114 5 0 102 -57 217 -126z m4076 -289 c0 -5 -39 -25 -86 -43 -61 -23
-98 -45 -128 -75 l-43 -41 0 222 0 222 129 -138 c71 -75 129 -141 128 -147z
m-2029 -606 l122 -236 -158 -7 c-86 -4 -188 -11 -225 -15 -46 -5 -66 -4 -64 3
72 196 194 503 198 498 3 -4 61 -113 127 -243z m837 -42 c50 -102 92 -186 95
-186 4 0 155 189 232 291 16 21 18 18 109 -165 52 -103 96 -187 99 -187 3 0
25 50 49 111 24 61 47 107 51 102 13 -13 192 -354 189 -357 -2 -2 -89 14 -194
35 -361 74 -753 131 -986 145 -60 4 -109 11 -109 15 0 12 94 218 100 219 3 0
27 -44 54 -97 57 -115 42 -128 137 119 47 123 67 164 74 154 6 -7 51 -97 100
-199z m-1371 -98 c31 -70 56 -131 56 -136 0 -5 -44 -17 -97 -27 -54 -9 -110
-20 -124 -23 l-26 -5 61 165 c33 91 64 163 68 159 3 -4 32 -64 62 -133z m-320
-59 c57 -90 81 -137 73 -141 -7 -4 -54 -16 -106 -28 -52 -12 -166 -42 -254
-67 -88 -24 -162 -42 -165 -40 -5 6 126 354 139 370 4 4 32 -29 63 -74 l55
-83 25 58 c14 31 26 59 26 60 0 17 44 95 50 89 5 -5 47 -70 94 -144z m-1880 5
c26 -66 51 -124 56 -129 4 -4 41 35 80 88 40 53 73 96 74 96 2 0 72 -101 157
-225 85 -124 156 -225 159 -225 3 0 34 50 69 110 35 61 64 110 66 110 1 0 44
-50 95 -111 65 -79 95 -108 100 -98 4 8 40 123 80 257 40 133 76 242 79 242 6
0 151 -457 151 -475 0 -14 -732 -256 -1023 -339 -344 -99 -645 -160 -922 -187
-225 -22 -687 -9 -718 20 -4 4 85 69 198 144 134 90 207 133 210 125 3 -7 13
-41 23 -75 9 -34 21 -63 27 -64 5 -1 88 116 184 259 96 144 178 259 183 256 4
-3 9 -38 9 -77 1 -40 4 -105 8 -144 l6 -73 125 190 c69 104 128 190 131 190 3
0 13 -34 23 -75 10 -41 21 -77 26 -80 4 -2 69 92 145 211 76 118 141 212 145
207 4 -4 28 -62 54 -128z m5456 -200 c101 -151 180 -278 177 -282 -9 -9 -179
20 -517 88 -375 75 -361 72 -360 84 2 11 232 295 240 295 3 0 24 -27 47 -60
24 -33 46 -60 50 -59 5 0 46 47 93 104 47 58 85 105 86 105 0 0 83 -124 184
-275z m-785 37 c31 -79 56 -145 54 -147 -5 -4 -241 46 -249 52 -2 2 25 60 60
128 36 68 68 121 71 117 3 -4 32 -71 64 -150z m-3346 -71 c19 -39 33 -73 30
-75 -2 -2 -41 -15 -86 -29 l-81 -25 33 77 c50 115 57 131 64 127 4 -3 22 -36
40 -75z m4606 -261 c37 -38 38 -41 15 -36 -14 3 -52 8 -85 11 -33 3 -74 9 -92
12 l-32 5 31 63 32 64 45 -39 c25 -21 64 -57 86 -80z"/>
<path d="M4655 3334 c-350 -21 -625 -64 -990 -155 -228 -57 -413 -111 -890
-264 -991 -316 -1249 -378 -1695 -406 -204 -13 -435 -3 -651 27 -61 8 -113 13
-115 11 -5 -5 159 -31 301 -48 134 -16 533 -16 670 0 351 40 726 132 1370 336
846 268 1184 356 1585 414 240 35 390 44 654 38 373 -8 577 -36 1289 -177 427
-84 668 -126 927 -159 336 -44 758 -68 935 -53 92 8 84 9 -110 11 -491 3 -889
60 -1935 274 -335 69 -530 102 -745 126 -167 19 -481 32 -600 25z"/>
<path d="M228 2563 c7 -3 16 -2 19 1 4 3 -2 6 -13 5 -11 0 -14 -3 -6 -6z"/>
<path d="M268 2553 c6 -2 18 -2 25 0 6 3 1 5 -13 5 -14 0 -19 -2 -12 -5z"/>
</g>
</svg>
